<mxfile host="app.diagrams.net" modified="2023-05-14T16:10:54.722Z" agent="Mozilla/5.0 (Windows NT 10.0; Win64; x64) AppleWebKit/537.36 (KHTML, like Gecko) Chrome/113.0.0.0 Safari/537.36" etag="nIcF8IX1PiSJHwUKi32l" version="21.3.0" type="device">
  <diagram name="Page-1" id="2YBvvXClWsGukQMizWep">
    <mxGraphModel dx="880" dy="490" grid="1" gridSize="10" guides="1" tooltips="1" connect="1" arrows="1" fold="1" page="1" pageScale="1" pageWidth="850" pageHeight="1100" math="0" shadow="0">
      <root>
        <mxCell id="0" />
        <mxCell id="1" parent="0" />
        <mxCell id="7K7tbecEThXiaxofRy7D-1" value="User" style="shape=umlLifeline;perimeter=lifelinePerimeter;whiteSpace=wrap;html=1;container=0;dropTarget=0;collapsible=0;recursiveResize=0;outlineConnect=0;portConstraint=eastwest;newEdgeStyle={&quot;edgeStyle&quot;:&quot;elbowEdgeStyle&quot;,&quot;elbow&quot;:&quot;vertical&quot;,&quot;curved&quot;:0,&quot;rounded&quot;:0};" vertex="1" parent="1">
          <mxGeometry x="40" y="40" width="100" height="440" as="geometry" />
        </mxCell>
        <mxCell id="7K7tbecEThXiaxofRy7D-2" value="" style="html=1;points=[];perimeter=orthogonalPerimeter;outlineConnect=0;targetShapes=umlLifeline;portConstraint=eastwest;newEdgeStyle={&quot;edgeStyle&quot;:&quot;elbowEdgeStyle&quot;,&quot;elbow&quot;:&quot;vertical&quot;,&quot;curved&quot;:0,&quot;rounded&quot;:0};" vertex="1" parent="7K7tbecEThXiaxofRy7D-1">
          <mxGeometry x="45" y="50" width="10" height="310" as="geometry" />
        </mxCell>
        <mxCell id="7K7tbecEThXiaxofRy7D-3" value="Game" style="shape=umlLifeline;perimeter=lifelinePerimeter;whiteSpace=wrap;html=1;container=0;dropTarget=0;collapsible=0;recursiveResize=0;outlineConnect=0;portConstraint=eastwest;newEdgeStyle={&quot;edgeStyle&quot;:&quot;elbowEdgeStyle&quot;,&quot;elbow&quot;:&quot;vertical&quot;,&quot;curved&quot;:0,&quot;rounded&quot;:0};" vertex="1" parent="1">
          <mxGeometry x="220" y="40" width="100" height="440" as="geometry" />
        </mxCell>
        <mxCell id="7K7tbecEThXiaxofRy7D-4" value="" style="html=1;points=[];perimeter=orthogonalPerimeter;outlineConnect=0;targetShapes=umlLifeline;portConstraint=eastwest;newEdgeStyle={&quot;edgeStyle&quot;:&quot;elbowEdgeStyle&quot;,&quot;elbow&quot;:&quot;vertical&quot;,&quot;curved&quot;:0,&quot;rounded&quot;:0};" vertex="1" parent="7K7tbecEThXiaxofRy7D-3">
          <mxGeometry x="45" y="50" width="10" height="310" as="geometry" />
        </mxCell>
        <mxCell id="7K7tbecEThXiaxofRy7D-5" value="Start multiplayer game" style="html=1;verticalAlign=bottom;endArrow=block;edgeStyle=elbowEdgeStyle;elbow=vertical;curved=0;rounded=0;" edge="1" parent="1">
          <mxGeometry relative="1" as="geometry">
            <mxPoint x="95" y="106" as="sourcePoint" />
            <Array as="points">
              <mxPoint x="180" y="106" />
            </Array>
            <mxPoint x="265" y="106" as="targetPoint" />
          </mxGeometry>
        </mxCell>
        <mxCell id="7K7tbecEThXiaxofRy7D-6" value="Board 1" style="shape=umlLifeline;perimeter=lifelinePerimeter;whiteSpace=wrap;html=1;container=0;dropTarget=0;collapsible=0;recursiveResize=0;outlineConnect=0;portConstraint=eastwest;newEdgeStyle={&quot;edgeStyle&quot;:&quot;elbowEdgeStyle&quot;,&quot;elbow&quot;:&quot;vertical&quot;,&quot;curved&quot;:0,&quot;rounded&quot;:0};" vertex="1" parent="1">
          <mxGeometry x="400" y="40" width="100" height="440" as="geometry" />
        </mxCell>
        <mxCell id="7K7tbecEThXiaxofRy7D-7" value="" style="html=1;points=[];perimeter=orthogonalPerimeter;outlineConnect=0;targetShapes=umlLifeline;portConstraint=eastwest;newEdgeStyle={&quot;edgeStyle&quot;:&quot;elbowEdgeStyle&quot;,&quot;elbow&quot;:&quot;vertical&quot;,&quot;curved&quot;:0,&quot;rounded&quot;:0};" vertex="1" parent="7K7tbecEThXiaxofRy7D-6">
          <mxGeometry x="45" y="50" width="10" height="310" as="geometry" />
        </mxCell>
        <mxCell id="7K7tbecEThXiaxofRy7D-14" value="" style="endArrow=classic;html=1;rounded=0;" edge="1" parent="1">
          <mxGeometry width="50" height="50" relative="1" as="geometry">
            <mxPoint x="95" y="280" as="sourcePoint" />
            <mxPoint x="264.9999999999999" y="280" as="targetPoint" />
          </mxGeometry>
        </mxCell>
        <mxCell id="7K7tbecEThXiaxofRy7D-15" value="Input keys" style="edgeLabel;html=1;align=center;verticalAlign=middle;resizable=0;points=[];" vertex="1" connectable="0" parent="7K7tbecEThXiaxofRy7D-14">
          <mxGeometry x="-0.1148" relative="1" as="geometry">
            <mxPoint x="10" y="-9" as="offset" />
          </mxGeometry>
        </mxCell>
        <mxCell id="7K7tbecEThXiaxofRy7D-32" value="" style="endArrow=classic;html=1;rounded=0;" edge="1" parent="1">
          <mxGeometry width="50" height="50" relative="1" as="geometry">
            <mxPoint x="89.5" y="141" as="sourcePoint" />
            <mxPoint x="265" y="141" as="targetPoint" />
            <Array as="points">
              <mxPoint x="230" y="141" />
            </Array>
          </mxGeometry>
        </mxCell>
        <mxCell id="7K7tbecEThXiaxofRy7D-33" value="IEnter players&#39; name&amp;nbsp;" style="edgeLabel;html=1;align=center;verticalAlign=middle;resizable=0;points=[];" vertex="1" connectable="0" parent="7K7tbecEThXiaxofRy7D-32">
          <mxGeometry x="-0.0484" y="3" relative="1" as="geometry">
            <mxPoint x="6" y="-6" as="offset" />
          </mxGeometry>
        </mxCell>
        <mxCell id="7K7tbecEThXiaxofRy7D-36" value="" style="endArrow=classic;html=1;rounded=0;" edge="1" parent="1">
          <mxGeometry width="50" height="50" relative="1" as="geometry">
            <mxPoint x="89.5" y="175" as="sourcePoint" />
            <mxPoint x="265" y="175" as="targetPoint" />
          </mxGeometry>
        </mxCell>
        <mxCell id="7K7tbecEThXiaxofRy7D-37" value="Pick sound" style="edgeLabel;html=1;align=center;verticalAlign=middle;resizable=0;points=[];" vertex="1" connectable="0" parent="7K7tbecEThXiaxofRy7D-36">
          <mxGeometry x="0.1225" y="1" relative="1" as="geometry">
            <mxPoint x="-10" y="-9" as="offset" />
          </mxGeometry>
        </mxCell>
        <mxCell id="7K7tbecEThXiaxofRy7D-38" value="" style="endArrow=classic;html=1;rounded=0;" edge="1" parent="1">
          <mxGeometry width="50" height="50" relative="1" as="geometry">
            <mxPoint x="265" y="207" as="sourcePoint" />
            <mxPoint x="89.5" y="207" as="targetPoint" />
          </mxGeometry>
        </mxCell>
        <mxCell id="7K7tbecEThXiaxofRy7D-39" value="Sound" style="edgeLabel;html=1;align=center;verticalAlign=middle;resizable=0;points=[];" vertex="1" connectable="0" parent="7K7tbecEThXiaxofRy7D-38">
          <mxGeometry x="0.208" relative="1" as="geometry">
            <mxPoint x="19" y="7" as="offset" />
          </mxGeometry>
        </mxCell>
        <mxCell id="7K7tbecEThXiaxofRy7D-79" value="Board 2" style="shape=umlLifeline;perimeter=lifelinePerimeter;whiteSpace=wrap;html=1;container=0;dropTarget=0;collapsible=0;recursiveResize=0;outlineConnect=0;portConstraint=eastwest;newEdgeStyle={&quot;edgeStyle&quot;:&quot;elbowEdgeStyle&quot;,&quot;elbow&quot;:&quot;vertical&quot;,&quot;curved&quot;:0,&quot;rounded&quot;:0};" vertex="1" parent="1">
          <mxGeometry x="570" y="40" width="100" height="440" as="geometry" />
        </mxCell>
        <mxCell id="7K7tbecEThXiaxofRy7D-80" value="" style="html=1;points=[];perimeter=orthogonalPerimeter;outlineConnect=0;targetShapes=umlLifeline;portConstraint=eastwest;newEdgeStyle={&quot;edgeStyle&quot;:&quot;elbowEdgeStyle&quot;,&quot;elbow&quot;:&quot;vertical&quot;,&quot;curved&quot;:0,&quot;rounded&quot;:0};" vertex="1" parent="7K7tbecEThXiaxofRy7D-79">
          <mxGeometry x="45" y="50" width="10" height="310" as="geometry" />
        </mxCell>
        <mxCell id="7K7tbecEThXiaxofRy7D-81" value="" style="endArrow=classic;html=1;rounded=0;" edge="1" parent="1" source="7K7tbecEThXiaxofRy7D-4" target="7K7tbecEThXiaxofRy7D-7">
          <mxGeometry width="50" height="50" relative="1" as="geometry">
            <mxPoint x="390" y="280" as="sourcePoint" />
            <mxPoint x="440" y="230" as="targetPoint" />
            <Array as="points">
              <mxPoint x="380" y="220" />
            </Array>
          </mxGeometry>
        </mxCell>
        <mxCell id="7K7tbecEThXiaxofRy7D-83" value="Create board 1&amp;nbsp;" style="edgeLabel;html=1;align=center;verticalAlign=middle;resizable=0;points=[];" vertex="1" connectable="0" parent="7K7tbecEThXiaxofRy7D-81">
          <mxGeometry x="-0.0235" y="1" relative="1" as="geometry">
            <mxPoint y="-10" as="offset" />
          </mxGeometry>
        </mxCell>
        <mxCell id="7K7tbecEThXiaxofRy7D-82" value="" style="endArrow=classic;html=1;rounded=0;" edge="1" parent="1" source="7K7tbecEThXiaxofRy7D-3" target="7K7tbecEThXiaxofRy7D-79">
          <mxGeometry width="50" height="50" relative="1" as="geometry">
            <mxPoint x="390" y="280" as="sourcePoint" />
            <mxPoint x="440" y="230" as="targetPoint" />
            <Array as="points">
              <mxPoint x="540" y="240" />
            </Array>
          </mxGeometry>
        </mxCell>
        <mxCell id="7K7tbecEThXiaxofRy7D-84" value="Create board 2" style="edgeLabel;html=1;align=center;verticalAlign=middle;resizable=0;points=[];" vertex="1" connectable="0" parent="7K7tbecEThXiaxofRy7D-82">
          <mxGeometry x="-0.4486" y="-3" relative="1" as="geometry">
            <mxPoint x="159" y="6" as="offset" />
          </mxGeometry>
        </mxCell>
        <mxCell id="7K7tbecEThXiaxofRy7D-85" value="" style="endArrow=classic;html=1;rounded=0;" edge="1" parent="1" source="7K7tbecEThXiaxofRy7D-3" target="7K7tbecEThXiaxofRy7D-7">
          <mxGeometry width="50" height="50" relative="1" as="geometry">
            <mxPoint x="390" y="280" as="sourcePoint" />
            <mxPoint x="440" y="230" as="targetPoint" />
          </mxGeometry>
        </mxCell>
        <mxCell id="7K7tbecEThXiaxofRy7D-86" value="Move pieces" style="edgeLabel;html=1;align=center;verticalAlign=middle;resizable=0;points=[];" vertex="1" connectable="0" parent="7K7tbecEThXiaxofRy7D-85">
          <mxGeometry x="-0.1168" y="2" relative="1" as="geometry">
            <mxPoint x="12" y="-9" as="offset" />
          </mxGeometry>
        </mxCell>
        <mxCell id="7K7tbecEThXiaxofRy7D-92" value="&lt;span style=&quot;font-size: 20px;&quot;&gt;Expand similar to singe player&lt;/span&gt;" style="text;html=1;align=center;verticalAlign=middle;resizable=0;points=[];autosize=1;strokeColor=none;fillColor=none;" vertex="1" parent="1">
          <mxGeometry x="210" y="440" width="290" height="40" as="geometry" />
        </mxCell>
      </root>
    </mxGraphModel>
  </diagram>
</mxfile>
